<?xml version="1.0" encoding="utf-8"?>
<!-- Generator: Adobe Illustrator 27.5.0, SVG Export Plug-In . SVG Version: 6.00 Build 0)  -->
<svg version="1.1" xmlns="http://www.w3.org/2000/svg" xmlns:xlink="http://www.w3.org/1999/xlink" x="0px" y="0px"
	 viewBox="0 0 500 500" style="enable-background:new 0 0 500 500;" xml:space="preserve">
<g id="BACKGROUND">
</g>
<g id="OBJECTS">
	<g>
		<path style="fill:#BFDFF6;" d="M88.064,345.603c-32.582-13.244-49.609-51.17-48.825-86.332
			c0.339-15.206,3.917-31.342,14.873-41.891c14.48-13.943,38.116-14.778,52.453-28.869c8.832-8.681,12.728-21.022,17.754-32.34
			c12.856-28.949,35.111-53.685,62.7-69.247c27.589-15.562,60.377-21.814,91.713-17.188c14.85,2.192,29.263,6.732,43.296,12.064
			c16.987,6.455,33.615,14.15,48.538,24.52c15.911,11.056,29.703,25.054,41.069,40.745c20.514,28.318,33.14,62.465,34.913,97.388
			c1.773,34.922-7.474,70.482-26.923,99.541L88.064,345.603z"/>
	</g>
	<g>
		<path style="fill:#2F4958;" d="M130.894,347.896h-71c-2.475,0-4.5-2.025-4.5-4.5l0,0c0-2.475,2.025-4.5,4.5-4.5h71
			c2.475,0,4.5,2.025,4.5,4.5l0,0C135.394,345.871,133.369,347.896,130.894,347.896z"/>
		<path style="fill:#2F4958;" d="M124.943,397.013H65.844c-0.798,0-1.451-0.653-1.451-1.451v-2.099c0-0.798,0.653-1.451,1.451-1.451
			h59.099c0.798,0,1.451,0.653,1.451,1.451v2.099C126.394,396.36,125.741,397.013,124.943,397.013z"/>
		<g>
			<polygon style="fill:none;stroke:#2F4958;stroke-width:0.9449;stroke-miterlimit:10;" points="60.144,347.574 75.644,394.896 
				88.644,344.896 			"/>
			<polygon style="fill:none;stroke:#2F4958;stroke-width:0.9449;stroke-miterlimit:10;" points="74.144,347.574 89.644,394.896 
				102.644,344.896 			"/>
			<polygon style="fill:none;stroke:#2F4958;stroke-width:0.9449;stroke-miterlimit:10;" points="88.144,347.574 103.644,394.896 
				116.644,344.896 			"/>
			<polygon style="fill:none;stroke:#2F4958;stroke-width:0.9449;stroke-miterlimit:10;" points="102.144,347.574 117.644,394.896 
				130.644,344.896 			"/>
		</g>
	</g>
	<g>
		<g>
			<path style="fill:#00C5BA;" d="M445.946,211.028l11.237-0.355c0.255-1.107,0.497-2.223,0.729-3.349l-8.222-4.721l8.896,1.227
				c0.151-0.836,0.288-1.668,0.423-2.499l-9.111-4.807l9.639,1.289c4.559-33.26-3.653-61.292-19.803-64.557
				c-5.592-1.131-11.461,0.854-17.107,5.265l3.634,13.436l-9.009-5.902l4.483,13.149l-9.395-9.041l5.265,14.327l-8.804-9.502
				c-6.26,10.409-11.444,23.867-14.497,38.969c-2.252,11.138-3.079,21.894-2.671,31.601l11.528,0.286l-11.073,6.055
				c0.108,1.046,0.23,2.077,0.37,3.09l11.474-2.868l-10.849,6.736c0.175,0.945,0.365,1.87,0.567,2.78l11.053-3.238l-9.509,8.978
				c3.543,11.09,9.523,18.571,17.392,20.162c16.117,3.258,34.532-19.284,43.273-51.597L445.946,211.028z"/>
			<path style="fill:#00C5BA;" d="M371.835,184.451l10.811-6.73c-0.288-1.005-0.59-2.015-0.908-3.029l-19.972,4.409l14.696-8.777
				l-19.792,2.294l20.918-9.374c-0.567-1.378-1.151-2.757-1.77-4.138c-15.471-34.524-41.291-56.56-57.67-49.22
				c-12.909,5.785-16.094,28.091-9.295,54.182l25.636-6.714l-16.112,10.507l14.506-4.309l-21.101,10.189
				c1.359,3.947,2.926,7.941,4.72,11.945c15.471,34.524,41.29,56.56,57.67,49.22c12.565-5.631,15.913-26.917,9.813-52.109
				L371.835,184.451z"/>
			<path style="fill:none;stroke:#0E2433;stroke-miterlimit:10;" d="M320.66,112.896c0,0,72,123,70,222"/>
			<polyline style="opacity:0.42;fill:none;stroke:#0E2433;stroke-miterlimit:10;" points="313.66,178.896 350.66,171.896 
				367.66,144.896 			"/>
			<polyline style="opacity:0.42;fill:none;stroke:#0E2433;stroke-miterlimit:10;" points="329.66,209.896 363.66,205.896 
				384.66,185.896 			"/>
			<path style="fill:none;stroke:#0E2433;stroke-miterlimit:10;" d="M444.66,135.896c0,0-46,142-42,204"/>
			<polyline style="opacity:0.42;fill:none;stroke:#0E2433;stroke-miterlimit:10;" points="417.252,146.054 432.66,174.896 
				458.66,162.896 			"/>
			<polyline style="opacity:0.42;fill:none;stroke:#0E2433;stroke-miterlimit:10;" points="398.66,177.896 421.66,215.896 
				459.01,201.331 			"/>
			<polyline style="opacity:0.42;fill:none;stroke:#0E2433;stroke-miterlimit:10;" points="399.66,228.896 413.66,248.896 
				442.66,244.896 			"/>
			<path style="fill:#FFC329;" d="M364.66,321.896v46c0,6.6,5.4,12,12,12h31c6.6,0,12-5.4,12-12v-46H364.66z"/>
			<rect x="364.66" y="321.896" style="fill:#FFC329;" width="55" height="18.51"/>
			<rect x="361.66" y="319.896" style="fill:#FFC329;" width="62" height="11"/>
		</g>
		<polyline style="opacity:0.42;fill:none;stroke:#0E2433;stroke-miterlimit:10;" points="307.66,148.896 337.66,142.896 
			350.66,121.896 		"/>
	</g>
	<g>
		<g>
			<path style="fill:none;stroke:#057AD1;stroke-width:0.8146;stroke-miterlimit:10;" d="M71.534,339.103h-4.887
				c-5.376,0-9.775-4.399-9.775-9.775v-17.921c0-5.376,4.399-9.775,9.775-9.775h4.887c5.376,0,9.775,4.399,9.775,9.775v17.921
				C81.309,334.704,76.91,339.103,71.534,339.103z"/>
			<path style="fill:none;stroke:#057AD1;stroke-width:0.8146;stroke-miterlimit:10;" d="M74.025,300.941h-9.869
				c-0.543,0-0.987-0.444-0.987-0.987l0,0c0-0.543,0.444-0.987,0.987-0.987h9.869c0.543,0,0.987,0.444,0.987,0.987l0,0
				C75.012,300.497,74.568,300.941,74.025,300.941z"/>
		</g>
		<path style="fill:none;stroke:#0E2433;stroke-width:1.0672;stroke-linecap:round;stroke-miterlimit:10;" d="M69.617,338.814
			c0,0,5.081-45.271-13.212-68.433"/>
		
			<line style="fill:none;stroke:#0E2433;stroke-width:0.8937;stroke-linecap:round;stroke-miterlimit:10;" x1="63.335" y1="281.642" x2="62.469" y2="269.082"/>
		
			<line style="fill:none;stroke:#0E2433;stroke-width:0.8937;stroke-linecap:round;stroke-miterlimit:10;" x1="56.838" y1="282.509" x2="65.934" y2="292.037"/>
		
			<line style="fill:none;stroke:#0E2433;stroke-width:0.8937;stroke-linecap:round;stroke-miterlimit:10;" x1="67.58" y1="296.558" x2="72.951" y2="289.004"/>
		<path style="fill:#00C5BA;" d="M59.702,274.176c0,0,2.337-5.469-2.63-8.507c-4.967-3.038-7.597-3.95-7.597-3.95
			S50.644,278.734,59.702,274.176z"/>
		<path style="fill:#00C5BA;" d="M63.895,271.714c0,0,5.833-1.163,5.531-6.978c-0.302-5.815-1.036-8.5-1.036-8.5
			S55.015,266.818,63.895,271.714z"/>
		<path style="fill:#00C5BA;" d="M73.158,292.079c0,0,5.789-1.366,5.285-7.167s-1.331-8.458-1.331-8.458
			S64.113,287.495,73.158,292.079z"/>
		<path style="fill:#00C5BA;" d="M59.607,286.953c0,0,1.275-5.81-4.173-7.866c-5.448-2.057-8.201-2.461-8.201-2.461
			S51.561,293.123,59.607,286.953z"/>
	</g>
	<g>
		<path style="fill:#2F4958;" d="M138.531,363.967l-3.87,42.929c0,0,2,3,6-2s12-45,12-45l-14-2L138.531,363.967z"/>
		<path style="fill:#2F4958;" d="M160.531,346.967l-3.87,42.929c0,0,2,3,6-2s12-45,12-45l-14-2L160.531,346.967z"/>
		<path style="fill:#2F4958;" d="M343.79,360.967l3.87,42.929c0,0-2,3-6-2s-12-45-12-45l14-2L343.79,360.967z"/>
		<path style="fill:#2F4958;" d="M322.79,338.967l3.87,42.929c0,0-2,3-6-2s-12-45-12-45l14-2L322.79,338.967z"/>
		<path style="fill:#057AD1;" d="M114.66,292.896c0,0-48-63-6-81s177-35,269,6c0,0,34,18-9,67l-24,62l-201,4L114.66,292.896z"/>
		<path style="opacity:0.2;fill:#057AD1;" d="M377.66,217.896c-5.699-2.54-11.563-4.855-17.559-6.963
			c1.505,24.597-6.664,49.451-23.164,68.48c-32.754,37.776-89.708,46.657-136.742,38.193c-26.799-4.822-51.021-15.989-69.751-36.158
			c-16.675-17.956-28.568-41.792-27.501-66.464c-31.512,21.164,11.717,77.913,11.717,77.913l29,58l201-4l24-62
			C411.66,235.896,377.66,217.896,377.66,217.896z"/>
		<path style="opacity:0.49;fill:none;stroke:#0E2433;stroke-width:0.9908;stroke-miterlimit:10;" d="M118.351,275.916
			c0,0-25.514-50.402-7.497-57.138s211.712-21.818,251.41,3.12c0,0,26.829,13.02,1.494,59.055"/>
		
			<line style="opacity:0.49;fill:none;stroke:#0E2433;stroke-width:0.9908;stroke-miterlimit:10;" x1="146.659" y1="314" x2="339.721" y2="315.873"/>
		<g>
			<path style="fill:#BFDFF6;" d="M313.263,268.315c0,0-18.078,32.256-16.597,46.878l-3.873,2.783c0,0,3.681,0.936,6.362-0.417
				c2.681-1.353,24.651,6.496,32.891,5.804l3.508,4.284l0.25-4.835c0,0,21.996-28.697,25.139-38.977l3.893-3.155l-7.048-0.738
				l-41.395-14.448l-3.527-3.912C312.865,261.582,314.494,266.142,313.263,268.315z"/>
			<g>
				<path style="opacity:0.54;fill:#BFDFF6;" d="M357.787,279.942l-4.529-1.581c0.095,8.061-6.198,15.839-11.692,21.09
					c-11.487,10.98-29.868,19.637-44.937,12.534c-0.068,1.138-0.064,2.216,0.036,3.207l-3.873,2.783c0,0,3.681,0.936,6.362-0.417
					c2.681-1.353,24.651,6.496,32.891,5.804l3.508,4.284l0.25-4.835c0,0,21.996-28.697,25.138-38.977l3.893-3.155L357.787,279.942z"
					/>
				<g>
					<defs>
						<path id="SVGID_1_" d="M313.263,268.315c0,0-18.078,32.256-16.597,46.878l-3.873,2.783c0,0,3.681,0.936,6.362-0.417
							c2.681-1.353,24.651,6.496,32.891,5.804l3.508,4.284l0.25-4.835c0,0,21.996-28.697,25.139-38.977l3.893-3.155l-7.048-0.738
							l-41.395-14.448l-3.527-3.912C312.865,261.582,314.494,266.142,313.263,268.315z"/>
					</defs>
					<clipPath id="SVGID_00000025442772299721173040000016217508488814634371_">
						<use xlink:href="#SVGID_1_"  style="overflow:visible;"/>
					</clipPath>
					<g style="clip-path:url(#SVGID_00000025442772299721173040000016217508488814634371_);">
						<path style="opacity:0.4;fill:none;stroke:#0E2433;stroke-miterlimit:10;" d="M305.208,273.635
							c0,0,31.657,17.505,54.749,20.112"/>
						<path style="opacity:0.4;fill:none;stroke:#0E2433;stroke-miterlimit:10;" d="M309.305,267.304
							c0,0,31.657,17.505,54.749,20.112"/>
						<path style="opacity:0.4;fill:none;stroke:#0E2433;stroke-miterlimit:10;" d="M302.229,280.339
							c0,0,31.657,17.505,54.749,20.112"/>
						<path style="opacity:0.4;fill:none;stroke:#0E2433;stroke-miterlimit:10;" d="M297.015,288.161
							c0,0,31.657,17.505,54.749,20.112"/>
						<path style="opacity:0.4;fill:none;stroke:#0E2433;stroke-miterlimit:10;" d="M292.546,295.237
							c0,0,31.657,17.505,54.749,20.112"/>
						<path style="opacity:0.4;fill:none;stroke:#0E2433;stroke-miterlimit:10;" d="M289.566,301.941
							c0,0,31.657,17.505,54.749,20.112"/>
					</g>
				</g>
			</g>
		</g>
		<g>
			<path style="fill:#017CE6;" d="M382.586,282.817c-31.063-15.531-45.347,34.115-49.781,54.348H151.743
				c-4.434-20.233-18.718-69.879-49.781-54.348c0,0-12.656,9.679,1.489,23.079s21.59,27.546,23.079,50.625
				c0,0-0.319,4.245,6.821,6.247c1.572,0.759,3.324,1.198,5.179,1.198h207.537c1.878,0,3.651-0.449,5.237-1.226
				c7.033-2.013,6.714-6.219,6.714-6.219c1.489-23.079,8.934-37.225,23.079-50.625S382.586,282.817,382.586,282.817z"/>
			
				<circle style="opacity:0.49;fill:none;stroke:#0E2433;stroke-width:0.9908;stroke-miterlimit:10;" cx="369.66" cy="296.896" r="7"/>
			
				<circle style="opacity:0.49;fill:none;stroke:#0E2433;stroke-width:0.9908;stroke-miterlimit:10;" cx="116.66" cy="296.896" r="7"/>
		</g>
	</g>
	<g>
		<path style="fill:#FF537C;" d="M291.663,365.822c0,0-8.938-31.657,6.704-32.775c15.642-1.117,40.596,2.979,49.162-2.607
			c8.566-5.587,20.857-4.469,21.974,5.214c1.117,9.683,2.235,33.52,10.801,36.871s14.898,28.305-10.428,31.285
			c-25.326,2.98-62.197,15.643-69.274-2.235C293.525,383.699,291.663,365.822,291.663,365.822z"/>
		<path style="opacity:0.21;fill:#FFFFFF;" d="M299.324,365.395c0,0-8.045-28.492,6.034-29.498
			c14.078-1.006,36.537,2.682,44.246-2.346c7.71-5.028,18.771-4.022,19.777,4.693c1.006,8.715,2.011,30.168,9.721,33.185
			c7.71,3.017,13.408,25.475-9.386,28.157c-22.794,2.682-55.979,14.078-62.347-2.011C301,381.485,299.324,365.395,299.324,365.395z"
			/>
		<g style="opacity:0.21;">
			<path style="fill:none;stroke:#0E2433;stroke-width:0.9778;stroke-miterlimit:10;" d="M289.367,353.744
				c8.001-0.296,6.956,7.747,16.356,7.194c4.77-0.28,9.743-8.622,15.463-9.07c5.254-0.411,11.404,7.07,16.659,6.504
				c5.679-0.611,10.093-9.241,14.842-10.049c7.446-1.266,16.284,4.235,18.388,2.435"/>
		</g>
		<g style="opacity:0.21;">
			<path style="fill:none;stroke:#0E2433;stroke-width:0.9635;stroke-miterlimit:10;" d="M290.546,339.105
				c7.768-0.296,6.754,7.747,15.88,7.194c4.631-0.28,9.459-8.622,15.013-9.07c5.102-0.411,11.072,7.07,16.174,6.505
				c5.514-0.611,9.799-9.241,14.41-10.049c7.229-1.266,15.81,4.235,17.853,2.435"/>
		</g>
		<g style="opacity:0.21;">
			<path style="fill:none;stroke:#0E2433;stroke-width:0.9845;stroke-miterlimit:10;" d="M291.519,367.038
				c8.11-0.296,7.052,7.747,16.58,7.194c4.835-0.28,9.876-8.622,15.674-9.07c5.326-0.411,11.559,7.07,16.887,6.505
				c5.757-0.611,10.231-9.241,15.045-10.049c7.547-1.266,16.506,4.235,18.64,2.435"/>
		</g>
		<g style="opacity:0.21;">
			<path style="fill:none;stroke:#0E2433;stroke-width:1.021;stroke-miterlimit:10;" d="M295.695,386.526
				c8.667-1.036,8.215,7.074,18.381,5.653c5.158-0.721,9.853-9.493,16.029-10.469c5.674-0.896,12.989,5.989,18.651,4.938
				c6.118-1.135,10.18-10.143,15.271-11.387c7.982-1.951,18.051,2.712,20.184,0.723"/>
		</g>
		<g style="opacity:0.21;">
			<path style="fill:none;stroke:#0E2433;stroke-width:1.0167;stroke-miterlimit:10;" d="M299.987,400.226
				c8.594-1.03,8.152,7.08,18.23,5.666c5.114-0.717,9.763-9.486,15.887-10.457c5.625-0.892,12.885,5.998,18.498,4.951
				c6.066-1.131,10.087-10.135,15.135-11.375c7.913-1.946,17.901,2.725,20.015,0.737"/>
		</g>
	</g>
	<g>
		<defs>
			<path id="SVGID_00000103257836604561868330000016414103798776229006_" d="M116.536,320.4c-0.563-3.347-5.157-5.023-7.094-5.586
				v-4.951h-0.067c-0.634-1.154-5.764-2.054-12-2.054c-6.236,0-11.367,0.9-12,2.054h-0.078v17.434
				c0,6.577,5.381,11.958,11.958,11.958h0.231c5.724,0,10.538-4.077,11.691-9.469C114.525,326.341,117.004,323.185,116.536,320.4z
				 M109.387,328.373c0.032-0.355,0.055-0.714,0.055-1.077v-11.371c1.884,0.585,5.612,2.059,6.047,4.65
				C115.854,322.749,113.747,325.428,109.387,328.373z"/>
		</defs>
		<clipPath id="SVGID_00000044876362376484448530000014748531063870707885_">
			<use xlink:href="#SVGID_00000103257836604561868330000016414103798776229006_"  style="overflow:visible;"/>
		</clipPath>
		<path style="clip-path:url(#SVGID_00000044876362376484448530000014748531063870707885_);fill:#FFFFFF;" d="M116.536,320.4
			c-0.563-3.347-5.157-5.023-7.094-5.586v-4.951h-0.067c-0.634-1.154-5.764-2.054-12-2.054c-6.236,0-11.367,0.9-12,2.054h-0.078
			v17.434c0,6.577,5.381,11.958,11.958,11.958h0.231c5.724,0,10.538-4.077,11.691-9.469
			C114.525,326.341,117.004,323.185,116.536,320.4z M109.387,328.373c0.032-0.355,0.055-0.714,0.055-1.077v-11.371
			c1.884,0.585,5.612,2.059,6.047,4.65C115.854,322.749,113.747,325.428,109.387,328.373z"/>
		
			<ellipse style="clip-path:url(#SVGID_00000044876362376484448530000014748531063870707885_);fill:#0E2433;" cx="97.227" cy="310.692" rx="10.535" ry="2.004"/>
		<g style="clip-path:url(#SVGID_00000044876362376484448530000014748531063870707885_);">
			<path style="fill:#FF537C;" d="M111.087,321.377c-1.611,0-2.406-1.176-3.106-2.212c-0.643-0.952-1.199-1.774-2.281-1.774
				s-1.638,0.822-2.281,1.774c-0.701,1.036-1.495,2.212-3.106,2.212c-1.611,0-2.405-1.176-3.105-2.213
				c-0.642-0.951-1.197-1.773-2.279-1.773c-1.08,0-1.635,0.822-2.277,1.774c-0.7,1.036-1.493,2.212-3.102,2.212
				c-1.61,0-2.404-1.176-3.104-2.212c-0.642-0.952-1.197-1.774-2.278-1.774v-0.996c1.61,0,2.404,1.175,3.104,2.212
				c0.642,0.952,1.197,1.774,2.278,1.774c1.08,0,1.634-0.821,2.276-1.773c0.7-1.037,1.493-2.213,3.103-2.213
				c1.611,0,2.404,1.175,3.105,2.212c0.643,0.952,1.197,1.774,2.279,1.774c1.082,0,1.638-0.822,2.281-1.774
				c0.701-1.036,1.495-2.212,3.106-2.212c1.612,0,2.406,1.175,3.106,2.212c0.643,0.952,1.199,1.774,2.281,1.774V321.377z"/>
		</g>
		<g style="clip-path:url(#SVGID_00000044876362376484448530000014748531063870707885_);">
			<path style="fill:#FF537C;" d="M111.087,326.084c-1.611,0-2.406-1.176-3.106-2.212c-0.643-0.952-1.199-1.774-2.281-1.774
				s-1.638,0.822-2.281,1.774c-0.701,1.036-1.495,2.212-3.106,2.212c-1.611,0-2.405-1.176-3.105-2.213
				c-0.642-0.951-1.197-1.773-2.279-1.773c-1.08,0-1.635,0.822-2.277,1.774c-0.7,1.036-1.493,2.212-3.102,2.212
				c-1.61,0-2.404-1.176-3.104-2.212c-0.642-0.952-1.197-1.774-2.278-1.774v-0.996c1.61,0,2.404,1.176,3.104,2.212
				c0.642,0.952,1.197,1.774,2.278,1.774c1.08,0,1.634-0.821,2.276-1.773c0.7-1.037,1.493-2.213,3.103-2.213
				c1.611,0,2.404,1.176,3.105,2.212c0.643,0.952,1.197,1.774,2.279,1.774c1.082,0,1.638-0.822,2.281-1.774
				c0.701-1.036,1.495-2.212,3.106-2.212c1.612,0,2.406,1.176,3.106,2.212c0.643,0.952,1.199,1.774,2.281,1.774V326.084z"/>
		</g>
		<g style="clip-path:url(#SVGID_00000044876362376484448530000014748531063870707885_);">
			<path style="fill:#FF537C;" d="M111.087,330.792c-1.611,0-2.406-1.176-3.106-2.212c-0.643-0.952-1.199-1.774-2.281-1.774
				s-1.638,0.822-2.281,1.774c-0.701,1.036-1.495,2.212-3.106,2.212c-1.611,0-2.405-1.176-3.105-2.213
				c-0.642-0.951-1.197-1.773-2.279-1.773c-1.08,0-1.635,0.822-2.277,1.774c-0.7,1.036-1.493,2.212-3.102,2.212
				c-1.61,0-2.404-1.176-3.104-2.212c-0.642-0.952-1.197-1.774-2.278-1.774v-0.996c1.61,0,2.404,1.175,3.104,2.212
				c0.642,0.952,1.197,1.774,2.278,1.774c1.08,0,1.634-0.821,2.276-1.773c0.7-1.037,1.493-2.213,3.103-2.213
				c1.611,0,2.404,1.175,3.105,2.212c0.643,0.952,1.197,1.774,2.279,1.774c1.082,0,1.638-0.822,2.281-1.774
				c0.701-1.036,1.495-2.212,3.106-2.212c1.612,0,2.406,1.175,3.106,2.212c0.643,0.952,1.199,1.774,2.281,1.774V330.792z"/>
		</g>
	</g>
	<g>
		<path style="fill:#A85C52;" d="M228.851,242.253c0,0,6.991,25.276,10.218,30.653c3.227,5.378,29.578,13.982,29.578,13.982
			s9.68-0.538,12.907,7.529c0,0-8.067,1.613-10.218,1.076c-2.151-0.538-32.858-3.257-32.858-3.257s-17.693,2.182-25.222-47.832
			C213.256,244.404,227.238,237.413,228.851,242.253z"/>
		<path style="opacity:0.25;fill:#A85C52;" d="M231.628,285.676c-4.092-4.733-2.422-7.902,0.656-10.902
			c-12.158-3.5-13.654-20.542-14.38-32.379c-2.609,0.991-4.648,2.009-4.648,2.009c7.529,50.014,25.222,47.832,25.222,47.832
			s0.468,0.041,1.285,0.114C236.685,290.5,233.874,288.275,231.628,285.676z"/>
		<g>
			<path style="fill:#A85C52;" d="M246.072,397.913c-0.978-0.81-12.853-10.529-15.352-6.959c0,0-7.449,4.469-6.331,11.173
				c1.117,6.704,4.469,2.607,4.842,8.194c0.372,5.586-2.979,20.112,3.724,21.229c0,0,4.842,1.117,5.587-1.862
				c0.743-2.973,0.681-25.338,7.557-31.67C246.091,397.983,246.08,397.948,246.072,397.913z"/>
			<path style="opacity:0.25;fill:#A85C52;" d="M235.67,426.112c-5.095-6.677-1.014-15.454-2.932-22.981
				c-0.736-2.888-2.086-5.696-2.192-8.716c-0.046-1.309,0.149-2.574,0.496-3.802c-0.119,0.098-0.229,0.207-0.323,0.34
				c0,0-7.449,4.469-6.331,11.173c1.117,6.704,4.469,2.607,4.842,8.194c0.372,5.586-2.979,20.112,3.724,21.229
				c0,0,4.842,1.117,5.587-1.862c0.121-0.486,0.221-1.495,0.334-2.86C237.869,427.401,236.554,427.271,235.67,426.112z"/>
		</g>
		<path style="fill:#0E2433;" d="M197.647,319.566c0,0,10.494,3.844,23.563-4.202l-4.179-10.213l-29.083,7.941L197.647,319.566z"/>
		<path style="fill:#0E2433;" d="M240.66,358.896c0,0,6.655-58.86,29.703-54.59c23.047,4.27-7.258,69.556-24.219,93.667
			l-16.26-5.405C229.884,392.568,237.088,367.189,240.66,358.896z"/>
		<path style="fill:#0E2433;" d="M224.374,289.519c0,0,48.286,10.377,52.286,19.377c0,0,3,6,1,10s-39.667,14.333-71.667-4.333
			C205.994,314.563,216.087,290.142,224.374,289.519z"/>
		<path style="fill:#A85C52;" d="M177.315,192.399l8.352,25.706c0,0-2.319,8.146-12.764,10.866c0,0-9.1,3.28-15.56-1.962
			l-11.873-24.698C145.469,202.311,170.962,185.552,177.315,192.399z"/>
		<path style="fill:#A85C52;" d="M177.315,192.399l8.352,25.706c0,0-2.319,8.146-12.764,10.866c0,0-9.1,3.28-15.56-1.962
			l-11.873-24.698C145.469,202.311,170.962,185.552,177.315,192.399z"/>
		<path style="fill:#A85C52;" d="M178.034,180.407c0.229-3.088-0.166-6.271-1.284-9.372c-4.254-11.802-17.271-17.921-29.073-13.667
			c-11.802,4.254-17.921,17.271-13.667,29.073c1.038,2.88,2.601,5.418,4.537,7.553l-0.652,1.91l18.69,24.329l22.956-8.014
			l0.274-30.382L178.034,180.407z"/>
		<path style="opacity:0.25;fill:#A85C52;" d="M163.776,213.614c-4.275-0.556-7.653-2.407-10.748-4.73
			c-2.606-1.158-5.044-2.78-7.2-4.954c-0.526-0.53-0.988-1.422-1.436-2.29c-0.262-0.209-0.53-0.411-0.797-0.616
			c0.059,0.782-0.044,1.47,0.357,2.436c0.208,0.5,1.309,1.544,1.243,1.945l11.391,14.828l22.956-8.014l0.023-2.518
			C175.14,212.996,169.331,214.337,163.776,213.614z"/>
		<path style="fill:#A85C52;" d="M135.939,190.491c0.763,1.263,1.639,2.434,2.608,3.503l-0.082,0.24
			c0.339-0.469,0.82-0.826,1.357-0.998C138.503,192.358,137.21,191.441,135.939,190.491z"/>
		<path style="fill:none;stroke:#0E2433;stroke-width:0.9388;stroke-miterlimit:10;" d="M138.837,159.999
			c0,0-3.079-2.023-1.564-3.613c1.515-1.59,11.265-6.41,13.298-5.838c2.034,0.572,1.647,3.844,1.647,3.844
			S140.121,158.492,138.837,159.999z"/>
		<path style="fill:#0E2433;" d="M135.261,192.938c0,0,3.643,2.864,4.207,3.705c0.564,0.841,1.016-2.977-2.434-7.477
			c0,0,1.617-0.583-0.954-4.094c0,0,1.478-3.143-0.889-4.64c0,0,2.421-2.7,0.959-5.306c0,0,2.458-1.147,1.671-4.779
			c0,0,3.53-1.795,2.216-4.715c0,0,4.049,0.368,4.898-3.071c0,0,4.992,0.811,5.609-2.544c0,0,4.253,2.383,6.59-0.548
			c0,0,2.719,3.197,5.704,1.338c0,0,2.673,4.519,5.131,3.372c0,0,1.518,4.935,3.976,3.788c0,0,1.158,6.109,3.699,5.193
			c0,0,2.536,8.484,3.812,9.851c1.276,1.367,0.468-9.567,0.468-9.567s1.69-4.003-2.165-6.007c0,0,0.183-5.287-3.191-6.681
			c0,0-1.287-5.018-4.707-5.091c0,0-2.423-3.826-6.499-2.095c0,0-1.794-3.53-5.26-2.281c0,0-7.737-1.91-12.707,4.58
			c0,0-10.139,1.566-11.015,7.103c0,0-4.398,4.457-2.308,7.358c0,0-4.315,4.688-1.762,7.423c0,0-1.44,4.696,0.631,6.821
			C130.941,184.575,130.546,190.722,135.261,192.938z"/>
		<g>
			<path style="fill:#0E2433;" d="M124.539,154.879c-0.003-4.077,3.813-6.05,7.194-3.849c2.646,1.723,4.392,4.627,5.391,7.553
				c1.034,3.028,5.865,1.728,4.821-1.329c-1.809-5.3-6.033-11.639-12.162-12.183c-5.823-0.516-10.248,4.146-10.244,9.809
				C119.541,158.096,124.541,158.102,124.539,154.879L124.539,154.879z"/>
		</g>
		<g>
			<path style="fill:#0E2433;" d="M145.237,156.619c-3.145-9.117-12.247-14.255-15.436-23.213c-1.072-3.01-5.904-1.713-4.821,1.329
				c3.225,9.058,12.337,14.228,15.436,23.213C141.458,160.972,146.29,159.673,145.237,156.619L145.237,156.619z"/>
		</g>
		<g>
			<path style="fill:#0E2433;" d="M148.123,155.626c-2.232-5.098-3.934-9.915-3.672-15.545c0.15-3.217-4.85-3.209-5,0
				c-0.304,6.519,1.778,12.182,4.354,18.069C145.092,161.09,149.402,158.548,148.123,155.626L148.123,155.626z"/>
		</g>
		<g>
			<path style="fill:#0E2433;" d="M150.089,154.545c-0.471-3.417-0.516-6.871-0.074-10.292c0.182-1.406,0.086-3.472,1.436-4.274
				c1.289-0.766,1.422,0.046,2.694,0.812c2.763,1.664,5.28-2.658,2.524-4.317c-1.947-1.173-3.164-2.795-5.681-2.407
				c-1.995,0.308-3.549,1.699-4.455,3.461c-2.688,5.231-2.033,12.785-1.266,18.347C145.705,159.047,150.523,157.697,150.089,154.545
				L150.089,154.545z"/>
		</g>
		<g>
			<path style="fill:#0E2433;" d="M141.383,158.061c-1.769-2.978-5.034-5.703-8.672-5.679c-3.882,0.025-5.749,3.583-6.782,6.805
				c-0.985,3.071,3.841,4.386,4.821,1.329c0.44-1.373,0.896-3.463,2.713-2.999c1.579,0.402,2.803,1.724,3.602,3.068
				C138.707,163.349,143.032,160.837,141.383,158.061L141.383,158.061z"/>
		</g>
		<g>
			<path style="fill:#0E2433;" d="M153.101,153.52c-0.274-1.395-0.832-4.076,0.904-4.795c1.532-0.635,3.758,0.049,5.397-0.136
				c1.352-0.152,2.485-1.04,2.5-2.5c0.013-1.235-1.159-2.651-2.5-2.5c-3.187,0.359-6.559-0.709-9.209,1.7
				c-2.727,2.478-2.566,6.244-1.914,9.561C148.9,158.004,153.72,156.669,153.101,153.52L153.101,153.52z"/>
		</g>
		<g>
			<path style="fill:#0E2433;" d="M144.85,154.752c-4.296-9.554-8.434-19.213-8.551-29.856c-0.035-3.215-5.035-3.224-5,0
				c0.127,11.543,4.574,22.017,9.234,32.38C141.85,160.205,146.16,157.666,144.85,154.752L144.85,154.752z"/>
		</g>
		<path style="fill:#FFC329;" d="M155.396,225.622c0,0-20.135,12.218-21.022,14.104c-0.887,1.886,33.317,60.565,34.706,66.591
			l0.594,5.268c0,0,37.141,10.971,64.987-19.69l-11.333-12l-13.463-65.758l-24.83,0.279
			C185.033,214.417,176.713,233.341,155.396,225.622z"/>
		<path style="opacity:0.7;fill:#FFC329;" d="M162.282,231.047c4.434,0.4,8.991,0.128,12.958-2.044
			c5.844-3.2,9.231-8.572,11.164-14.601l-1.37,0.015c0,0-8.32,18.924-29.638,11.205c0,0-1.341,0.814-3.339,2.049
			C154.361,230.212,159.289,230.777,162.282,231.047z"/>
		<path style="opacity:0.7;fill:#FFC329;" d="M194.102,301.666c-0.497-0.98,0.13-2.323,0.935-2.901
			c4.382-3.148,10.649-4.844,15.207-8.147c-7.423,2.377-14.725,4.766-22.775,3.36c-2.596-0.454-2.626-3.837-0.422-4.819
			c5.389-2.4,14.914-3.66,19.698-8.268c-7.668,0.178-15.327,1.656-22.982,0.411c-7.81-1.27-15.65-4.398-22.337-8.587
			c-12.98-8.131-19.347-20.676-26.834-33.281c-0.1,0.113-0.182,0.215-0.219,0.293c-0.887,1.886,33.317,60.565,34.706,66.591
			l0.594,5.268c0,0,15.941,4.708,34.766-0.666C200.138,309.193,196.448,306.289,194.102,301.666z"/>
		<g>
			<path style="fill:#0E2433;" d="M138.574,202.859c4.696,9.422,10.757,18.12,18.153,25.628
				c7.426,7.539,16.278,13.689,21.358,23.221c1.361,2.553,5.241,0.286,3.88-2.268c-4.732-8.879-12.535-14.987-19.69-21.808
				c-8.187-7.804-14.78-16.929-19.82-27.042C141.164,198.002,137.286,200.275,138.574,202.859L138.574,202.859z"/>
		</g>
		<g>
			<path style="fill:#0E2433;" d="M178.129,190.595c1.3,17.174,12.024,36.635,2.181,52.967c-1.665,2.763,2.657,5.279,4.317,2.524
				c10.629-17.637-0.101-37.043-1.498-55.491C182.887,187.407,177.885,187.38,178.129,190.595L178.129,190.595z"/>
		</g>
		<g>
			<path style="fill:#0E2433;" d="M138.67,203.382c0.608,6.965,1.257,13.939,2.973,20.734c1.719,6.809,4.164,13.438,6.392,20.091
				c1.134,3.387,6.523,1.935,5.379-1.483c-4.392-13.117-7.957-25.491-9.165-39.342C143.939,199.833,138.358,199.801,138.67,203.382
				L138.67,203.382z"/>
		</g>
		<g>
			<path style="fill:#0E2433;" d="M179.575,189.98c3.874,5.403,7.913,10.928,10.314,17.182c2.309,6.014,1.827,12.462,3.705,18.553
				c0.945,3.066,5.773,1.758,4.821-1.329c-2.06-6.68-1.602-13.557-4.347-20.136c-2.536-6.079-6.359-11.469-10.176-16.794
				C182.034,184.864,177.695,187.358,179.575,189.98L179.575,189.98z"/>
		</g>
		<path style="fill:#A85C52;" d="M138.063,190.759c0,0-7.106-6.35-7.238-1.074c-0.132,5.276,8.931,17.857,14.609,13.873
			C145.434,203.558,141.184,193.932,138.063,190.759z"/>
		<path style="fill:#A85C52;" d="M176.537,180.622c0,0,1.915-9.364,5.128-5.017c3.213,4.347,3.411,20.047-3.455,19.937
			C178.211,195.542,175.923,185.056,176.537,180.622z"/>
		<path style="fill:#0E2433;" d="M161.931,179.094c0,0,5.893-6.737,10.628-4.117l0.528,1.839c0,0-6.025,1.201-8.998,4.71
			C164.09,181.526,160.621,181.462,161.931,179.094z"/>
		<path style="fill:#0E2433;" d="M151.645,182.66c0,0-8.659-2.267-11.106,2.559l0.595,1.818c0,0,5.66-2.388,10.09-1.153
			C151.223,185.884,154.058,183.883,151.645,182.66z"/>
		<path style="fill:#0E2433;" d="M145.114,193.486c0,0,7.228,1.711,9.982-2.852C155.096,190.634,153.375,198.049,145.114,193.486z"
			/>
		<path style="fill:#0E2433;" d="M164.64,187.288c0,0,7.39,0.751,9.523-4.133C174.163,183.155,173.427,190.731,164.64,187.288z"/>
		<g>
			<path style="fill:#0E2433;" d="M160.229,199.475c1.377-0.036,2.613-0.191,3.731-0.678c0.557-0.234,1.097-0.526,1.595-0.908
				c0.519-0.362,0.977-0.815,1.518-1.265c-0.185,0.667-0.506,1.311-0.988,1.838c-0.453,0.558-1.08,0.964-1.741,1.258
				c-0.673,0.277-1.403,0.411-2.116,0.363C161.521,200.044,160.817,199.858,160.229,199.475z"/>
		</g>
		<path style="fill:#FFFFFF;" d="M160.8,206.605c0,0,7.415-0.856,10.838-3.993C171.637,202.612,170.212,209.742,160.8,206.605z"/>
		<path style="opacity:0.38;fill:#A85C52;" d="M137.589,193.481c0,0-3.657-3.275-3.878-1.201c-0.221,2.074,4.763,9.327,7.052,7.853
			C140.763,200.133,139.912,197.49,137.589,193.481z"/>
		<path style="opacity:0.38;fill:#A85C52;" d="M178.94,182.064c0,0,0.937-4.819,2.366-3.299c1.429,1.519,1.837,10.311-0.878,10.518
			C180.428,189.283,179.509,186.663,178.94,182.064z"/>
		<path style="fill:#0E2433;" d="M136.08,185.072c0,0,4.58,6.157,5.58,9.99c0,0-5-5.833-6.833-7.167
			C134.827,187.896,134.333,184.748,136.08,185.072z"/>
		<path style="fill:#0E2433;" d="M175.473,173.516c0,0,0.026,7.674,1.524,11.341c0,0,0.504-7.666,1.172-9.833
			C178.169,175.024,176.677,172.209,175.473,173.516z"/>
		<path style="fill:#0E2433;" d="M183.953,177.387l-0.647,0.763c-0.296,0.35-0.825,0.393-1.174,0.097l0,0
			c-0.35-0.296-0.393-0.825-0.097-1.174l0.647-0.763c0.296-0.35,0.825-0.393,1.175-0.097l0,0
			C184.206,176.509,184.249,177.037,183.953,177.387z"/>
		<polygon style="fill:#FFFFFF;" points="168.327,239.563 171.494,236.229 173.66,238.229 170.66,241.896 		"/>
		<polygon style="fill:#FFFFFF;" points="188.66,203.896 189.66,206.396 194.494,204.729 193.16,201.729 		"/>
		<path style="fill:#FFFFFF;" d="M127.827,155.063c0,0,3.5,2.833,3.833,3.667l1.167-1.167l-3.167-4
			C129.66,153.563,128.327,153.229,127.827,155.063z"/>
		<path style="fill:#FFC329;" d="M139.603,272.171c4.252-3.745,11.558-15.775,11.558-15.775l-14-16.5
			c0,0-10.517,6.523-10.983,16.543C130.306,262.003,134.729,267.28,139.603,272.171z"/>
		<path style="fill:#964A44;" d="M120.419,282.452c0,0,9.38,1.73,19.026-10.863l-6.431-6.431
			C133.014,265.158,118.274,272.683,120.419,282.452z"/>
		<g>
			<path style="fill:#A85C52;" d="M140.015,221.01l6.591,9.041c0,0-10.236,53.23-26.188,52.4
				C104.467,281.623,113.553,255.535,140.015,221.01z"/>
			<g>
				<g>
					<path style="fill:#A85C52;" d="M137.054,224.907c0,0,5.822-21.02,8.663-19.394c0,0,1.727,0.324,1.895,2.402
						c0,0,1.643-0.715,2.552,0.912c0.91,1.628,3.567,1.346,3.561,3.408c0,0,2.757,0.587,2.561,2.805c0,0-0.958,11.07-8.726,17.01
						C147.56,232.05,136.78,232.625,137.054,224.907z"/>
					<path style="fill:#A85C52;" d="M156.286,215.04c0,0,0.032,13.585-2.118,14.083c-2.15,0.498-1.645-3.24-1.603-7.706
						C152.608,216.951,154.521,213.165,156.286,215.04z"/>
					<path style="opacity:0.38;fill:#A85C52;" d="M154.644,215.755c0,0-1.205,9.694-2.166,10.641c0,0,0.024,1.721,0.516,2.109
						c0.492,0.387,1.318,0.976,1.772-0.188C154.766,228.316,152.805,228.659,154.644,215.755z"/>
				</g>
				<path style="fill:none;stroke:#A85C52;stroke-width:0.3251;stroke-linecap:round;stroke-miterlimit:10;" d="M144.545,208.848
					c0,0,7.12,2.862,8.879,6.799"/>
			</g>
		</g>
		<path style="fill:#FF537C;" d="M204.273,300.35l-1.766,1.177l22.068,15.595c0,0,21.185-12.064,32.955-7.65
			c0,0,1.471,0.294,2.648-0.588c1.177-0.883,17.949-9.416,27.364-5.296l-2.648-2.354l-0.294-1.471L204.273,300.35z"/>
		<g>
			<path style="fill:#E2DEDE;" d="M205.101,297.16l-0.828,3.189l20.008,14.712c0,0,22.656-13.535,33.837-7.356
				c0,0,15.595-10.887,27.953-5.885l0.01-3.566c0,0-16.193-6.438-29.434,0.035C243.407,304.763,205.101,297.16,205.101,297.16z"/>
			<path style="fill:#FFFFFF;" d="M225.346,311.934c0,0,13.251-13.377,32.283-8.207c0,0,11.491-10.396,28.453-5.472l-25.717-16.415
				c0,0-16.415,1.094-21.887,10.396c0,0-25.717-3.83-33.377,4.924L225.346,311.934z"/>
		</g>
		<path style="fill:#FFC329;" d="M209.864,214.138c0,0,4.708-2.354,16.477,14.123c11.77,16.477,8.827,13.535,8.827,13.535
			s-12.652,8.239-23.245,6.179C211.923,247.975,202.214,218.846,209.864,214.138z"/>
		<g>
			<path style="fill:#A85C52;" d="M208.532,340.556c0,0,16.177,7.834,18.653,9.36c2.477,1.525,9.422-7.751,9.422-7.751
				s4.212-2.11,2.366-4.479c-1.845-2.369-28.872-9.772-28.872-9.772S203.839,334.082,208.532,340.556z"/>
			<path style="opacity:0.25;fill:#A85C52;" d="M237.765,340.34c-0.068-0.007-0.135-0.018-0.203-0.024
				c-8.722,6.075-20.796,1.829-30.425-2.53c0.273,0.906,0.716,1.835,1.395,2.771c0,0,16.177,7.834,18.653,9.36
				c2.477,1.525,9.422-7.751,9.422-7.751s1.69-0.85,2.458-2.074C238.675,340.281,238.238,340.385,237.765,340.34z"/>
		</g>
		<path style="fill:#0E2433;" d="M199.327,317.563c0,0-60.746-44.006-74.201-24.812c-13.455,19.193,53.907,44.549,82.902,49.872
			l7.817-15.248C215.845,327.374,207.687,320.978,199.327,317.563z"/>
		<path style="opacity:0.7;fill:#FFC329;" d="M206.512,224.101c0,0,5.214,16.76,10.428,24.209
			C216.94,248.31,206.884,240.116,206.512,224.101z"/>
	</g>
	<g>
		<path style="fill:#0E2433;" d="M230.34,181.989c0,0-9.539-13.355-5.724-13.737c3.816-0.382,9.921,5.342,9.921,5.342
			S233.392,184.278,230.34,181.989z"/>
		<path style="fill:#0E2433;" d="M253.357,169.446c0,0-6.601-15.026-8.88-11.942c-2.279,3.084-0.481,11.258-0.481,11.258
			S253.764,173.24,253.357,169.446z"/>
		<path style="fill:#FFFFFF;" d="M278.8,165.581c-8.494,0.607-15.048,5.546-18.725,8.124c-2.362-5.139-7.866-8.743-14.282-8.743
			c-8.568,0-15.514,6.427-15.514,14.356c0,7.259,5.828,13.243,13.386,14.205l0.028,0.295c0.266-0.076,0.57-0.142,0.906-0.2
			c0.395,0.028,0.79,0.056,1.193,0.056c1.185,0,2.334-0.134,3.443-0.367c13.828-0.096,43.682,4.327,43.682,4.327l1.526-0.763
			C306.655,180.844,289.484,164.818,278.8,165.581z"/>
		<path style="fill:#FFC329;" d="M255.905,175.12c0,3.161-2.563,5.724-5.724,5.724c-3.161,0-5.724-2.563-5.724-5.724
			c0-3.161,2.563-5.724,5.724-5.724C253.343,169.397,255.905,171.959,255.905,175.12z"/>
		<g>
			<path style="fill:#FFFFFF;" d="M294.185,226.36c-0.921,2.641-2.345,3.559-4.273,2.753c-1.096,0.031-1.849-0.483-2.26-1.542
				c-1.422-1.636-1.645-3.724-0.614-5.69c1.328-2.532,4.375-3.936,6.455-5.79c3.461-3.087,5.825-7.229,7.076-11.67
				c2.887-10.246-0.48-20.623-5.248-29.721c-1.494-2.851-5.811-0.327-4.317,2.523c4.759,9.08,8.277,20.374,3.089,30.084
				c-3.624,6.783-13.905,9.668-12.598,18.723c0.891,6.173,7.319,10.073,13.182,7.613c5.535-2.322,6.95-9.722,0.838-12.105
				C292.514,220.37,291.214,225.202,294.185,226.36L294.185,226.36z"/>
		</g>
		<path style="fill:#FFC329;" d="M271.55,167.489c0,0-1.526,11.066,9.158,12.211c10.684,1.145,13.737-6.105,13.737-6.105
			S286.813,160.62,271.55,167.489z"/>
		<path style="fill:#0E2433;" d="M278.8,176.456c0,2.845-2.477,5.151-5.533,5.151c-3.056,0-5.533-2.306-5.533-5.151
			c0-2.845,2.477-5.151,5.533-5.151C276.323,171.304,278.8,173.611,278.8,176.456z"/>
		<g>
			<path style="fill:#0E2433;" d="M234.919,181.989c1.115,0.113,2.15,0.251,2.905-0.076c0.366-0.156,0.693-0.413,0.941-0.824
				c0.146-0.185,0.233-0.426,0.374-0.647c0.108-0.238,0.208-0.487,0.359-0.742c0.071,0.275,0.1,0.559,0.12,0.85
				c-0.038,0.283-0.029,0.587-0.147,0.872c-0.146,0.592-0.646,1.147-1.257,1.412c-0.624,0.253-1.282,0.225-1.84,0.05
				C235.812,182.71,235.305,182.418,234.919,181.989z"/>
		</g>
		<g>
			<path style="fill:#0E2433;" d="M246.747,176.265c1.115,0.113,2.15,0.251,2.905-0.076c0.366-0.156,0.693-0.413,0.941-0.824
				c0.146-0.185,0.233-0.426,0.374-0.647c0.108-0.238,0.208-0.487,0.359-0.742c0.071,0.275,0.1,0.559,0.12,0.85
				c-0.038,0.283-0.029,0.587-0.147,0.872c-0.146,0.592-0.646,1.147-1.257,1.412c-0.624,0.252-1.282,0.225-1.84,0.05
				C247.641,176.987,247.134,176.695,246.747,176.265z"/>
		</g>
		<path style="fill:#0E2433;" d="M285.287,178.936c-1.237,0.209-2.437,0.596-3.5,1.2c-1.071,0.58-2.001,1.403-2.599,2.423
			c-0.577,1.023-0.951,2.164-0.988,3.363c-0.06,0.59,0.025,1.198,0.027,1.795l0.299,1.795l0.105,0.631l-0.613-0.023
			c-1.236-0.047-2.494-0.042-3.734,0.014c-1.239,0.049-2.487,0.16-3.653,0.436c-0.558,0.143-1.177,0.375-1.381,0.744
			c-0.09,0.131-0.071,0.483-0.075,0.788c-0.002,0.308,0.02,0.608,0.065,0.898c0.064,0.589,0.385,1.082,0.927,1.37
			c0.534,0.285,1.153,0.45,1.766,0.594c-0.63-0.039-1.268-0.107-1.882-0.355c-0.625-0.22-1.151-0.836-1.292-1.503
			c-0.083-0.327-0.126-0.657-0.148-0.979l-0.029-0.483c-0.014-0.135,0.004-0.416,0.093-0.596c0.178-0.4,0.502-0.63,0.799-0.807
			c0.306-0.174,0.62-0.307,0.935-0.409c1.262-0.42,2.547-0.531,3.819-0.644c1.278-0.084,2.544-0.101,3.829-0.066l-0.508,0.607
			l-0.295-1.919c0.005-0.654-0.087-1.306,0.005-1.96c0.099-1.31,0.534-2.622,1.291-3.711c0.759-1.094,1.844-1.919,3.022-2.437
			C282.763,179.215,284.025,178.922,285.287,178.936z"/>
		<path style="fill:#FFFFFF;" d="M236.826,191.146c0,0,7.648,2.412,12.41,2.16c4.761-0.252,2.853,4.708-2.489,5.853
			c-5.342,1.145-19.46-1.145-13.355-10.303C233.392,188.857,234.919,190.002,236.826,191.146z"/>
		<path style="fill:#FFFFFF;" d="M257.813,187.331c0,0-4.96,21.75-5.724,23.276c-0.763,1.526,1.908,6.487,5.724,3.434
			c3.816-3.053,7.25-19.079,6.868-25.184C264.3,182.752,262.392,181.989,257.813,187.331z"/>
		<path style="fill:#0E2433;" d="M256.287,185.041c0.3,0.739,0.47,1.506,0.586,2.277c0.119,0.772,0.164,1.552,0.158,2.335
			c-0.027,0.782-0.085,1.568-0.263,2.34c-0.173,0.769-0.427,1.536-0.862,2.206c0.08-1.576,0.105-3.044,0.125-4.563
			C256.069,188.124,256.076,186.611,256.287,185.041z"/>
		<path style="fill:#0E2433;" d="M265.063,185.804c0.3,0.739,0.469,1.506,0.586,2.277c0.119,0.772,0.164,1.552,0.158,2.335
			c-0.027,0.782-0.085,1.568-0.263,2.34c-0.173,0.769-0.428,1.536-0.862,2.206c0.079-1.576,0.105-3.044,0.125-4.563
			C264.845,188.887,264.852,187.374,265.063,185.804z"/>
		<path style="fill:#0E2433;" d="M233.569,188.268c1.145,0.749,2.368,1.322,3.613,1.815c1.243,0.495,2.519,0.889,3.816,1.189
			c0.653,0.129,1.3,0.29,1.962,0.363c0.656,0.116,1.318,0.189,1.984,0.235c1.329,0.13,2.668,0.124,4.015,0.11l0.051-0.001
			c0.366,0.055,0.675,0.152,0.994,0.28c0.314,0.126,0.607,0.304,0.872,0.511c0.268,0.204,0.494,0.461,0.675,0.736
			c0.195,0.27,0.285,0.595,0.363,0.9c-0.285-0.575-0.712-1.042-1.249-1.319c-0.265-0.142-0.549-0.24-0.835-0.32
			c-0.283-0.075-0.596-0.125-0.862-0.13l0.05-0.001c-0.684,0.069-1.371,0.159-2.061,0.196c-0.691-0.003-1.385,0.057-2.076-0.005
			c-1.388-0.048-2.763-0.294-4.112-0.62c-1.344-0.355-2.648-0.858-3.876-1.499C235.674,190.054,234.513,189.267,233.569,188.268z"/>
		<path style="fill:#0E2433;" d="M243.031,184.141c0.647-0.154,1.281-0.338,1.692-0.67c0.198-0.17,0.314-0.354,0.367-0.562
			c0.058-0.204,0.033-0.463-0.003-0.721l-0.098-0.697l0.712,0.133c0.293,0.054,0.642,0.122,0.961,0.123
			c0.323,0.014,0.641-0.002,0.929-0.081c0.286-0.079,0.543-0.22,0.759-0.453c0.238-0.225,0.357-0.562,0.515-0.916
			c0.075,0.368,0.098,0.786-0.077,1.182c-0.161,0.396-0.498,0.741-0.894,0.937c-0.395,0.2-0.819,0.271-1.228,0.293
			c-0.415,0.002-0.8-0.013-1.221-0.131l0.614-0.564c0.035,0.379,0.083,0.79-0.103,1.2c-0.157,0.405-0.488,0.738-0.847,0.9
			c-0.355,0.178-0.726,0.216-1.072,0.217C243.688,184.32,243.348,184.266,243.031,184.141z"/>
		<polygon style="fill:#FF537C;" points="241.035,180.592 246.329,177.698 245.573,182.1 		"/>
		<path style="fill:#0E2433;" d="M253.373,214.239c0,0,1.989-1.724,1.724-3.713"/>
		<path style="fill:#0E2433;" d="M255.229,215.034c0,0,1.989-1.724,1.724-3.713"/>
		<path style="fill:#0E2433;" d="M272.854,191.32c0,0-2.614,0.303-3.516,2.096"/>
		<path style="fill:#0E2433;" d="M274.047,192.911c0,0-2.614,0.303-3.516,2.096"/>
		<path style="fill:#0E2433;" d="M246.628,196.798c0,0,2.369,1.147,4.091,0.119"/>
		<path style="fill:#0E2433;" d="M247.556,194.677c0,0,2.369,1.147,4.091,0.119"/>
	</g>
</g>
</svg>
